
<svg xmlns="http://www.w3.org/2000/svg" version="1.1" xmlns:xlink="http://www.w3.org/1999/xlink" preserveAspectRatio="none" x="0px" y="0px" width="775px" height="109px" viewBox="0 0 775 109">
<defs>
<g id="Layer0_0_FILL">
<path fill="#B2B3B6" stroke="none" d="
M 577.25 621.3
Q 577.25 614.25 573.35 610.15 569.4 606.1 562.35 606.1 557.55 606.1 554.3 607.55 551.1 608.95 549.1 610.9 547.05 612.85 546 614.85
L 544.5 617.75 544.25 617.75 544.25 607.05 524.35 607.05 524.35 608.55 531.4 608.55 531.4 651.5 524.35 651.5 524.35 653 551.25 653 551.25 651.5 544.5 651.5 544.5 628.6
Q 544.5 623.65 545.6 620 546.6 616.4 548.4 613.9 550.2 611.45 552.55 610.2 554.9 608.95 557.45 608.95 560.55 608.95 562.35 611.05 564.2 613.15 564.2 617.65
L 564.2 651.5 557.55 651.5 557.55 653 584.45 653 584.45 651.5 577.25 651.5 577.25 621.3 Z"/>

<path fill="#FFFFFF" stroke="none" d="
M 593.65 607.1
L 593.65 608.6 601.9 608.6 601.9 651.55 593.65 651.55 593.65 653.05 619.35 653.05 619.35 651.55 611.1 651.55 611.1 607.1 593.65 607.1
M 371.85 620.45
Q 371.85 617.6 370.95 615 370.1 612.35 368.05 610.25 366 608.2 362.75 606.95 359.4 605.75 354.45 605.75 350.4 605.75 347.25 606.65 344.05 607.65 341.95 609.3 339.9 610.95 338.85 613.1 337.75 615.25 337.75 617.6 337.75 619.65 338.6 620.95 339.45 622.2 343 622.2 345.05 622.2 346.1 621.2 347.2 620.15 347.2 618.7
L 346.5 612.45
Q 346.5 609.7 348.8 608.45 351.1 607.2 354.7 607.2 357.35 607.2 358.95 607.95 360.6 608.7 361.4 610.15 362.25 611.6 362.6 613.6
L 362.95 618.2 362.4 623.35
Q 361.95 625.25 360.7 626.45 359.4 627.7 357.1 628.5
L 345.3 632.4
Q 342.35 633.25 339.95 634.6 337.5 635.9 336.05 638.15 334.55 640.4 334.55 644.15
L 335 647.65
Q 335.5 649.5 337 651 338.5 652.55 341.2 653.5 343.85 654.55 348.35 654.55 352.3 654.55 354.9 653.65 357.45 652.75 359 651.4 360.6 650.05 361.3 648.6
L 362.45 646.2 362.75 646.2
Q 363.55 650.15 365.85 652.35 368.15 654.55 373.3 654.55 376.1 654.55 378 653.75
L 381.35 651.85 380.5 650.7 378 652 375.55 652.4
Q 373.75 652.4 372.75 651.3 371.85 650.3 371.85 647.15
L 371.85 620.45
M 358.85 629.55
Q 362.15 628.2 362.35 626.8
L 362.6 626.8 362.6 637.5 362.2 642.3
Q 361.85 644.9 360.75 647.15 359.6 649.4 357.4 650.9 355.2 652.4 351.7 652.4 349.2 652.4 347.65 651.55 346.1 650.7 345.25 649.35 344.35 648.05 344.05 646.3
L 343.75 642.95
Q 343.75 639.25 345.6 636.75 347.4 634.2 350.8 632.8
L 358.85 629.55
M 444.45 607.1
L 427 607.1 427 608.6 435.25 608.6 435.25 651.55 427 651.55 427 653.05 452.7 653.05 452.7 651.55 444.45 651.55 444.45 607.1
M 480 607.55
Q 475.6 609.35 472 612.65 468.4 615.85 466.1 620.35 463.8 624.85 463.8 630.15 463.8 635.15 465.95 639.6 468.1 644.05 471.6 647.35 475.05 650.7 479.55 652.65 484.05 654.55 488.75 654.55 493.45 654.55 497.95 652.65 502.45 650.7 505.95 647.35 509.45 644.05 511.6 639.6 513.75 635.15 513.75 630.15 513.75 624.85 511.4 620.35 509.1 615.85 505.55 612.65 501.95 609.35 497.5 607.55 493.05 605.75 488.75 605.75 484.45 605.75 480 607.55
M 475.35 619.35
Q 476.25 615.05 478.05 612.3 479.75 609.6 482.5 608.4 485.15 607.2 488.75 607.2 492.4 607.2 495.1 608.4 497.75 609.6 499.55 612.3 501.3 615.05 502.15 619.35 503.05 623.7 503.05 630.15 503.05 637.75 501.85 642.25 500.7 646.7 498.75 649.15 496.8 651.55 494.25 652.3 491.7 653.05 488.75 653.05 485.9 653.05 483.3 652.3 480.75 651.55 478.8 649.15 476.9 646.7 475.7 642.25 474.55 637.75 474.55 630.15 474.55 623.7 475.35 619.35
M 435.6 586.15
Q 437.3 587.85 439.65 587.85 442 587.85 443.65 586.15 445.35 584.5 445.35 582.15 445.35 579.8 443.65 578.1 442 576.5 439.65 576.5 437.3 576.5 435.6 578.1 433.95 579.8 433.95 582.15 433.95 584.5 435.6 586.15
M 404.3 592.45
L 402.05 593.65 399.2 594.05 396.65 593.8 395.1 593.3 395.1 607.1 386.85 607.1 386.85 608.6 395.1 608.6 395.1 642.65
Q 395.1 648.35 398.25 651.45 401.35 654.55 409.4 654.55 412.6 654.55 414.75 653.5 416.9 652.55 418.25 650.95 419.55 649.4 420.25 647.7
L 421.2 644.6 419.7 644.05
Q 419.05 647.6 416.75 650.35 414.45 653.05 410.75 653.05
L 408.55 652.75
Q 407.4 652.4 406.45 651.4 405.45 650.4 404.85 648.5 404.3 646.6 404.3 643.65
L 404.3 608.6 419.45 608.6 419.45 607.1 404.3 607.1 404.3 592.45
M 602.25 586.15
Q 603.95 587.85 606.3 587.85 608.65 587.85 610.3 586.15 612 584.5 612 582.15 612 579.8 610.3 578.1 608.65 576.5 606.3 576.5 603.95 576.5 602.25 578.1 600.6 579.8 600.6 582.15 600.6 584.5 602.25 586.15
M 268.45 606.1
L 264.65 605.75
Q 261.35 605.75 258.45 606.75 255.65 607.85 253.6 609.8 251.55 611.7 250.4 614.3 249.2 616.85 249.2 619.85 249.2 623.4 250.25 625.65 251.25 627.9 252.85 629.3 254.45 630.75 256.3 631.55
L 268.2 635.8
Q 270.95 636.8 273.05 638.4 275.15 640.1 275.15 644.15 275.15 648.85 272.5 650.95 269.75 653.05 266.35 653.05 262.3 653.05 259.4 651.65 256.45 650.3 254.5 648.1 252.55 645.9 251.35 643.25
L 249.4 638.05 248.25 638.05 248.25 653.05 249.4 653.05 250.3 652.05
Q 250.85 651.55 252 651.55
L 254.6 652.05 261.3 654.05 265.55 654.55
Q 269.65 654.55 272.85 653.25 276 652 278.2 649.9 280.35 647.8 281.5 645 282.6 642.25 282.6 639.35 282.6 634.45 279.45 631.4 276.2 628.4 271.15 626.7
L 263.3 624.15
Q 258.6 622.6 256.2 620.9 253.8 619.1 253.8 615.65 253.8 611.85 256.65 609.5 259.5 607.2 264.65 607.2 267.3 607.2 269.3 608.2 271.25 609.1 272.65 610.85
L 274.95 614.75 276.6 619.3 277.8 619.3 277.8 607.1 276.6 607.1
Q 276.1 607.95 274.95 607.95
L 272.9 607.6 270.95 606.8 268.45 606.1
M 310.45 592.45
L 308.2 593.65 305.35 594.05 302.8 593.8 301.25 593.3 301.25 607.1 293 607.1 293 608.6 301.25 608.6 301.25 642.65
Q 301.25 648.35 304.4 651.45 307.5 654.55 315.55 654.55 318.75 654.55 320.9 653.5 323.05 652.55 324.4 650.95 325.7 649.4 326.4 647.7
L 327.35 644.6 325.85 644.05
Q 325.2 647.6 322.9 650.35 320.6 653.05 316.9 653.05
L 314.7 652.75
Q 313.55 652.4 312.6 651.4 311.6 650.4 311 648.5 310.45 646.6 310.45 643.65
L 310.45 608.6 325.6 608.6 325.6 607.1 310.45 607.1 310.45 592.45
M 1022.65 626.5
Q 1022.65 620.6 1020.65 616.65 1018.65 612.7 1015.75 610.25 1012.75 607.85 1009.35 606.75 1005.9 605.75 1002.9 605.75 997.9 605.75 993.5 607.8 989.1 609.9 985.8 613.3 982.6 616.75 980.7 621.2 978.8 625.65 978.8 630.35 978.8 635.8 980.65 640.25 982.45 644.7 985.75 647.95 989.1 651.1 993.65 652.85 998.2 654.55 1003.55 654.55 1008.95 654.55 1012.3 652.9 1015.7 651.2 1017.65 649 1019.6 646.85 1020.55 644.65
L 1021.75 641.3 1020.15 640.95 1018.85 644.25
Q 1018.05 646.3 1016.25 648.3 1014.45 650.3 1011.45 651.65 1008.35 653.05 1003.65 653.05 998.95 653.05 996.1 651 993.3 648.95 991.85 645.9 990.35 642.75 989.95 638.95
L 989.65 626.5 1022.65 626.5
M 1009.3 609.8
Q 1010.5 611.15 1011.25 613.5 1011.9 615.85 1011.9 619.55
L 1011.7 624.95 989.75 624.95 990.65 618.2
Q 991.35 615.05 992.7 612.6 994.15 610.1 996.5 608.65 998.85 607.2 1002.5 607.2
L 1006.25 607.8
Q 1008.05 608.4 1009.3 609.8
M 913.9 653.05
L 913.9 651.55 905.65 651.55 905.65 607.1 888.2 607.1 888.2 608.6 896.45 608.6 896.45 651.55 888.2 651.55 888.2 653.05 913.9 653.05
M 965.35 608.6
L 971.15 608.6 971.15 607.1 954.85 607.1 954.85 608.6 963.6 608.6 949.25 642.25 935.45 608.6 944.25 608.6 944.25 607.1 918.3 607.1 918.3 608.6 925.6 608.6 945.1 656.6 965.35 608.6
M 650.85 613.1
Q 653.2 610.45 656.35 608.9 659.45 607.45 662.9 607.45 667 607.45 669 610.1 671 612.8 671 616.95
L 671 651.55 662.8 651.55 662.8 653.05 688.45 653.05 688.45 651.55 680.2 651.55 680.2 620.25
Q 680.2 612.8 675.75 609.35 671.3 605.95 664.25 605.95 659.65 605.95 656.45 607.4 653.2 608.8 651.05 610.85 648.9 612.9 647.7 615.05
L 645.85 618.6 645.6 618.6 645.6 607.1 628.35 607.1 628.35 608.6 636.65 608.6 636.65 651.55 628.35 651.55 628.35 653.05 654.1 653.05 654.1 651.55 645.85 651.55 645.85 627.3
Q 645.85 623.05 647.2 619.45 648.5 615.75 650.85 613.1
M 736.2 610.25
Q 733.2 607.85 729.8 606.75 726.35 605.75 723.35 605.75 718.35 605.75 713.95 607.8 709.55 609.9 706.25 613.3 703.05 616.75 701.15 621.2 699.25 625.65 699.25 630.35 699.25 635.8 701.1 640.25 702.9 644.7 706.2 647.95 709.55 651.1 714.1 652.85 718.65 654.55 724 654.55 729.4 654.55 732.75 652.9 736.15 651.2 738.1 649 740.05 646.85 741 644.65
L 742.2 641.3 740.6 640.95 739.3 644.25
Q 738.5 646.3 736.7 648.3 734.9 650.3 731.9 651.65 728.8 653.05 724.1 653.05 719.4 653.05 716.55 651 713.75 648.95 712.3 645.9 710.8 642.75 710.4 638.95
L 710.1 626.5 743.1 626.5
Q 743.1 620.6 741.1 616.65 739.1 612.7 736.2 610.25
M 729.75 609.8
Q 730.95 611.15 731.7 613.5 732.35 615.85 732.35 619.55
L 732.15 624.95 710.2 624.95 711.1 618.2
Q 711.8 615.05 713.15 612.6 714.6 610.1 716.95 608.65 719.3 607.2 722.95 607.2
L 726.7 607.8
Q 728.5 608.4 729.75 609.8
M 789.85 608.6
L 797.2 608.6 815.7 654.45 807.9 673.65 805.15 678.4
Q 803.75 680.25 802.25 681.1 800.85 681.85 799.15 681.85
L 797.1 681.45
Q 796.35 681.05 796.35 679.6 796.35 678 797.25 676.7 798.2 675.35 798.2 673.8
L 797.6 672 796.35 670.85 794.75 670.25 793.1 670.1
Q 791 670.1 789.5 671.4 788 672.75 788 675.45
L 788.3 677.8
Q 788.6 679.2 789.7 680.45 790.75 681.75 792.65 682.7 794.55 683.7 797.6 683.7 800.2 683.7 802.1 682.75 804.05 681.85 805.7 680.05 807.4 678.2 808.85 675.35
L 811.9 668.6 815.5 659.2 837.05 608.6 842.85 608.6 842.85 607.1 826.45 607.1 826.45 608.6 835.3 608.6 820.9 642.25 807.05 608.6 816.1 608.6 816.1 607.1 789.85 607.1 789.85 608.6
M 763 593.8
L 761.45 593.3 761.45 607.1 753.2 607.1 753.2 608.6 761.45 608.6 761.45 642.65
Q 761.45 648.35 764.6 651.45 767.7 654.55 775.75 654.55 778.95 654.55 781.1 653.5 783.25 652.55 784.6 650.95 785.9 649.4 786.6 647.7
L 787.55 644.6 786.05 644.05
Q 785.4 647.6 783.1 650.35 780.8 653.05 777.1 653.05
L 774.9 652.75
Q 773.75 652.4 772.8 651.4 771.8 650.4 771.2 648.5 770.65 646.6 770.65 643.65
L 770.65 608.6 785.8 608.6 785.8 607.1 770.65 607.1 770.65 592.45 768.4 593.65 765.55 594.05 763 593.8
M 896.8 586.15
Q 898.5 587.85 900.85 587.85 903.2 587.85 904.85 586.15 906.55 584.5 906.55 582.15 906.55 579.8 904.85 578.1 903.2 576.5 900.85 576.5 898.5 576.5 896.8 578.1 895.15 579.8 895.15 582.15 895.15 584.5 896.8 586.15
M 859.25 586.5
L 857.8 590.15 856.75 594.95 856.4 607.1 848.15 607.1 848.15 608.6 856.4 608.6 856.4 651.55 848.15 651.55 848.15 653.05 875.4 653.05 875.4 651.55 865.6 651.55 865.6 608.6 878.9 608.6 878.9 607.1 865.6 607.1 865.6 592.25
Q 865.6 584.1 868.85 580.2 872.05 576.4 876.4 576.4 878.45 576.4 880.4 577.15 882.35 577.95 882.35 580.3 882.35 582.15 881.3 583.6 880.3 585 880.3 586.85 880.3 589 882.05 589.65
L 885.2 590.3
Q 888 590.3 889.2 588.55 890.35 586.85 890.35 584.8 890.35 583.45 889.6 581.65 888.85 579.9 887.25 578.45 885.6 576.9 883.1 575.85 880.6 574.85 877.05 574.85 872.35 574.85 868.15 577.5 864 580.1 861.2 583.65
L 859.25 586.5 Z"/>
</g>
</defs>

<g transform="matrix( 1, 0, 0, 1, -248.25,-574.85) ">
<use xlink:href="#Layer0_0_FILL"/>
</g>
</svg>
