
<svg xmlns="http://www.w3.org/2000/svg" version="1.1" xmlns:xlink="http://www.w3.org/1999/xlink" preserveAspectRatio="none" x="0px" y="0px" width="775px" height="109px" viewBox="0 0 775 109">
<defs>
<g id="Layer0_0_FILL">
<path fill="#FFFFFF" stroke="none" d="
M 16.4 30.9
Q 13.1 30.9 10.2 31.9 7.4 33 5.35 34.95 3.3 36.85 2.15 39.45 0.95 42 0.95 45 0.95 48.55 2 50.8 3 53.05 4.6 54.45 6.2 55.9 8.05 56.7
L 19.95 60.95
Q 22.7 61.95 24.8 63.55 26.9 65.25 26.9 69.3 26.9 74 24.25 76.1 21.5 78.2 18.1 78.2 14.05 78.2 11.15 76.8 8.2 75.45 6.25 73.25 4.3 71.05 3.1 68.4
L 1.15 63.2 0 63.2 0 78.2 1.15 78.2 2.05 77.2
Q 2.6 76.7 3.75 76.7
L 6.35 77.2 13.05 79.2 17.3 79.7
Q 21.4 79.7 24.6 78.4 27.75 77.15 29.95 75.05 32.1 72.95 33.25 70.15 34.35 67.4 34.35 64.5 34.35 59.6 31.2 56.55 27.95 53.55 22.9 51.85
L 15.05 49.3
Q 10.35 47.75 7.95 46.05 5.55 44.25 5.55 40.8 5.55 37 8.4 34.65 11.25 32.35 16.4 32.35 19.05 32.35 21.05 33.35 23 34.25 24.4 36
L 26.7 39.9 28.35 44.45 29.55 44.45 29.55 32.25 28.35 32.25
Q 27.85 33.1 26.7 33.1
L 24.65 32.75 22.7 31.95 20.2 31.25 16.4 30.9
M 54.55 18.95
L 53 18.45 53 32.25 44.75 32.25 44.75 33.75 53 33.75 53 67.8
Q 53 73.5 56.15 76.6 59.25 79.7 67.3 79.7 70.5 79.7 72.65 78.65 74.8 77.7 76.15 76.1 77.45 74.55 78.15 72.85
L 79.1 69.75 77.6 69.2
Q 76.95 72.75 74.65 75.5 72.35 78.2 68.65 78.2
L 66.45 77.9
Q 65.3 77.55 64.35 76.55 63.35 75.55 62.75 73.65 62.2 71.75 62.2 68.8
L 62.2 33.75 77.35 33.75 77.35 32.25 62.2 32.25 62.2 17.6 59.95 18.8 57.1 19.2 54.55 18.95
M 123.6 45.6
Q 123.6 42.75 122.7 40.15 121.85 37.5 119.8 35.4 117.75 33.35 114.5 32.1 111.15 30.9 106.2 30.9 102.15 30.9 99 31.8 95.8 32.8 93.7 34.45 91.65 36.1 90.6 38.25 89.5 40.4 89.5 42.75 89.5 44.8 90.35 46.1 91.2 47.35 94.75 47.35 96.8 47.35 97.85 46.35 98.95 45.3 98.95 43.85
L 98.25 37.6
Q 98.25 34.85 100.55 33.6 102.85 32.35 106.45 32.35 109.1 32.35 110.7 33.1 112.35 33.85 113.15 35.3 114 36.75 114.35 38.75
L 114.7 43.35 114.15 48.5
Q 113.7 50.4 112.45 51.6 111.15 52.85 108.85 53.65
L 97.05 57.55
Q 94.1 58.4 91.7 59.75 89.25 61.05 87.8 63.3 86.3 65.55 86.3 69.3
L 86.75 72.8
Q 87.25 74.65 88.75 76.15 90.25 77.7 92.95 78.65 95.6 79.7 100.1 79.7 104.05 79.7 106.65 78.8 109.2 77.9 110.75 76.55 112.35 75.2 113.05 73.75
L 114.2 71.35 114.5 71.35
Q 115.3 75.3 117.6 77.5 119.9 79.7 125.05 79.7 127.85 79.7 129.75 78.9
L 133.1 77 132.25 75.85 129.75 77.15 127.3 77.55
Q 125.5 77.55 124.5 76.45 123.6 75.45 123.6 72.3
L 123.6 45.6
M 114.1 51.95
L 114.35 51.95 114.35 62.65 113.95 67.45
Q 113.6 70.05 112.5 72.3 111.35 74.55 109.15 76.05 106.95 77.55 103.45 77.55 100.95 77.55 99.4 76.7 97.85 75.85 97 74.5 96.1 73.2 95.8 71.45
L 95.5 68.1
Q 95.5 64.4 97.35 61.9 99.15 59.35 102.55 57.95
L 110.6 54.7
Q 113.9 53.35 114.1 51.95
M 171.2 33.75
L 171.2 32.25 156.05 32.25 156.05 17.6 153.8 18.8 150.95 19.2 148.4 18.95 146.85 18.45 146.85 32.25 138.6 32.25 138.6 33.75 146.85 33.75 146.85 67.8
Q 146.85 73.5 150 76.6 153.1 79.7 161.15 79.7 164.35 79.7 166.5 78.65 168.65 77.7 170 76.1 171.3 74.55 172 72.85
L 172.95 69.75 171.45 69.2
Q 170.8 72.75 168.5 75.5 166.2 78.2 162.5 78.2
L 160.3 77.9
Q 159.15 77.55 158.2 76.55 157.2 75.55 156.6 73.65 156.05 71.75 156.05 68.8
L 156.05 33.75 171.2 33.75
M 178.75 32.25
L 178.75 33.75 187 33.75 187 76.7 178.75 76.7 178.75 78.2 204.45 78.2 204.45 76.7 196.2 76.7 196.2 32.25 178.75 32.25
M 187.35 11.3
Q 189.05 13 191.4 13 193.75 13 195.4 11.3 197.1 9.65 197.1 7.3 197.1 4.95 195.4 3.25 193.75 1.65 191.4 1.65 189.05 1.65 187.35 3.25 185.7 4.95 185.7 7.3 185.7 9.65 187.35 11.3
M 257.3 37.8
Q 253.7 34.5 249.25 32.7 244.8 30.9 240.5 30.9 236.2 30.9 231.75 32.7 227.35 34.5 223.75 37.8 220.15 41 217.85 45.5 215.55 50 215.55 55.3 215.55 60.3 217.7 64.75 219.85 69.2 223.35 72.5 226.8 75.85 231.3 77.8 235.8 79.7 240.5 79.7 245.2 79.7 249.7 77.8 254.2 75.85 257.7 72.5 261.2 69.2 263.35 64.75 265.5 60.3 265.5 55.3 265.5 50 263.15 45.5 260.85 41 257.3 37.8
M 246.85 33.55
Q 249.5 34.75 251.3 37.45 253.05 40.2 253.9 44.5 254.8 48.85 254.8 55.3 254.8 62.9 253.6 67.4 252.45 71.85 250.5 74.3 248.55 76.7 246 77.45 243.45 78.2 240.5 78.2 237.65 78.2 235.05 77.45 232.5 76.7 230.55 74.3 228.65 71.85 227.45 67.4 226.3 62.9 226.3 55.3 226.3 48.85 227.1 44.5 228 40.2 229.8 37.45 231.5 34.75 234.25 33.55 236.9 32.35 240.5 32.35 244.15 32.35 246.85 33.55
M 362.85 32.25
L 345.4 32.25 345.4 33.75 353.65 33.75 353.65 76.7 345.4 76.7 345.4 78.2 371.1 78.2 371.1 76.7 362.85 76.7 362.85 32.25
M 329 46.45
Q 329 39.4 325.1 35.3 321.15 31.25 314.1 31.25 309.3 31.25 306.05 32.7 302.85 34.1 300.85 36.05 298.8 38 297.75 40
L 296.25 42.9 296 42.9 296 32.2 276.1 32.2 276.1 33.7 283.15 33.7 283.15 76.65 276.1 76.65 276.1 78.15 303 78.15 303 76.65 296.25 76.65 296.25 53.75
Q 296.25 48.8 297.35 45.15 298.35 41.55 300.15 39.05 301.95 36.6 304.3 35.35 306.65 34.1 309.2 34.1 312.3 34.1 314.1 36.2 315.95 38.3 315.95 42.8
L 315.95 76.65 309.3 76.65 309.3 78.15 336.2 78.15 336.2 76.65 329 76.65 329 46.45
M 354 11.3
Q 355.7 13 358.05 13 360.4 13 362.05 11.3 363.75 9.65 363.75 7.3 363.75 4.95 362.05 3.25 360.4 1.65 358.05 1.65 355.7 1.65 354 3.25 352.35 4.95 352.35 7.3 352.35 9.65 354 11.3
M 408.1 34.05
Q 411.2 32.6 414.65 32.6 418.75 32.6 420.75 35.25 422.75 37.95 422.75 42.1
L 422.75 76.7 414.55 76.7 414.55 78.2 440.2 78.2 440.2 76.7 431.95 76.7 431.95 45.4
Q 431.95 37.95 427.5 34.5 423.05 31.1 416 31.1 411.4 31.1 408.2 32.55 404.95 33.95 402.8 36 400.65 38.05 399.45 40.2
L 397.6 43.75 397.35 43.75 397.35 32.25 380.1 32.25 380.1 33.75 388.4 33.75 388.4 76.7 380.1 76.7 380.1 78.2 405.85 78.2 405.85 76.7 397.6 76.7 397.6 52.45
Q 397.6 48.2 398.95 44.6 400.25 40.9 402.6 38.25 404.95 35.6 408.1 34.05
M 492.85 41.8
Q 490.85 37.85 487.95 35.4 484.95 33 481.55 31.9 478.1 30.9 475.1 30.9 470.1 30.9 465.7 32.95 461.3 35.05 458 38.45 454.8 41.9 452.9 46.35 451 50.8 451 55.5 451 60.95 452.85 65.4 454.65 69.85 457.95 73.1 461.3 76.25 465.85 78 470.4 79.7 475.75 79.7 481.15 79.7 484.5 78.05 487.9 76.35 489.85 74.15 491.8 72 492.75 69.8
L 493.95 66.45 492.35 66.1 491.05 69.4
Q 490.25 71.45 488.45 73.45 486.65 75.45 483.65 76.8 480.55 78.2 475.85 78.2 471.15 78.2 468.3 76.15 465.5 74.1 464.05 71.05 462.55 67.9 462.15 64.1
L 461.85 51.65 494.85 51.65
Q 494.85 45.75 492.85 41.8
M 462.85 43.35
Q 463.55 40.2 464.9 37.75 466.35 35.25 468.7 33.8 471.05 32.35 474.7 32.35
L 478.45 32.95
Q 480.25 33.55 481.5 34.95 482.7 36.3 483.45 38.65 484.1 41 484.1 44.7
L 483.9 50.1 461.95 50.1 462.85 43.35
M 537.55 33.75
L 537.55 32.25 522.4 32.25 522.4 17.6 520.15 18.8 517.3 19.2 514.75 18.95 513.2 18.45 513.2 32.25 504.95 32.25 504.95 33.75 513.2 33.75 513.2 67.8
Q 513.2 73.5 516.35 76.6 519.45 79.7 527.5 79.7 530.7 79.7 532.85 78.65 535 77.7 536.35 76.1 537.65 74.55 538.35 72.85
L 539.3 69.75 537.8 69.2
Q 537.15 72.75 534.85 75.5 532.55 78.2 528.85 78.2
L 526.65 77.9
Q 525.5 77.55 524.55 76.55 523.55 75.55 522.95 73.65 522.4 71.75 522.4 68.8
L 522.4 33.75 537.55 33.75
M 588.8 33.75
L 594.6 33.75 594.6 32.25 578.2 32.25 578.2 33.75 587.05 33.75 572.65 67.4 558.8 33.75 567.85 33.75 567.85 32.25 541.6 32.25 541.6 33.75 548.95 33.75 567.45 79.6 559.65 98.8 556.9 103.55
Q 555.5 105.4 554 106.25 552.6 107 550.9 107
L 548.85 106.6
Q 548.1 106.2 548.1 104.75 548.1 103.15 549 101.85 549.95 100.5 549.95 98.95
L 549.35 97.15 548.1 96 546.5 95.4 544.85 95.25
Q 542.75 95.25 541.25 96.55 539.75 97.9 539.75 100.6
L 540.05 102.95
Q 540.35 104.35 541.45 105.6 542.5 106.9 544.4 107.85 546.3 108.85 549.35 108.85 551.95 108.85 553.85 107.9 555.8 107 557.45 105.2 559.15 103.35 560.6 100.5
L 563.65 93.75 567.25 84.35 588.8 33.75
M 641.35 6.8
Q 640.6 5.05 639 3.6 637.35 2.05 634.85 1 632.35 0 628.8 0 624.1 0 619.9 2.65 615.75 5.25 612.95 8.8
L 611 11.65 609.55 15.3 608.5 20.1 608.15 32.25 599.9 32.25 599.9 33.75 608.15 33.75 608.15 76.7 599.9 76.7 599.9 78.2 627.15 78.2 627.15 76.7 617.35 76.7 617.35 33.75 630.65 33.75 630.65 32.25 617.35 32.25 617.35 17.4
Q 617.35 9.25 620.6 5.35 623.8 1.55 628.15 1.55 630.2 1.55 632.15 2.3 634.1 3.1 634.1 5.45 634.1 7.3 633.05 8.75 632.05 10.15 632.05 12 632.05 14.15 633.8 14.8
L 636.95 15.45
Q 639.75 15.45 640.95 13.7 642.1 12 642.1 9.95 642.1 8.6 641.35 6.8
M 665.65 78.2
L 665.65 76.7 657.4 76.7 657.4 32.25 639.95 32.25 639.95 33.75 648.2 33.75 648.2 76.7 639.95 76.7 639.95 78.2 665.65 78.2
M 648.55 11.3
Q 650.25 13 652.6 13 654.95 13 656.6 11.3 658.3 9.65 658.3 7.3 658.3 4.95 656.6 3.25 654.95 1.65 652.6 1.65 650.25 1.65 648.55 3.25 646.9 4.95 646.9 7.3 646.9 9.65 648.55 11.3
M 717.1 33.75
L 722.9 33.75 722.9 32.25 706.6 32.25 706.6 33.75 715.35 33.75 701 67.4 687.2 33.75 696 33.75 696 32.25 670.05 32.25 670.05 33.75 677.35 33.75 696.85 81.75 717.1 33.75
M 745.25 32.95
Q 740.85 35.05 737.55 38.45 734.35 41.9 732.45 46.35 730.55 50.8 730.55 55.5 730.55 60.95 732.4 65.4 734.2 69.85 737.5 73.1 740.85 76.25 745.4 78 749.95 79.7 755.3 79.7 760.7 79.7 764.05 78.05 767.45 76.35 769.4 74.15 771.35 72 772.3 69.8
L 773.5 66.45 771.9 66.1 770.6 69.4
Q 769.8 71.45 768 73.45 766.2 75.45 763.2 76.8 760.1 78.2 755.4 78.2 750.7 78.2 747.85 76.15 745.05 74.1 743.6 71.05 742.1 67.9 741.7 64.1
L 741.4 51.65 774.4 51.65
Q 774.4 45.75 772.4 41.8 770.4 37.85 767.5 35.4 764.5 33 761.1 31.9 757.65 30.9 754.65 30.9 749.65 30.9 745.25 32.95
M 742.4 43.35
Q 743.1 40.2 744.45 37.75 745.9 35.25 748.25 33.8 750.6 32.35 754.25 32.35
L 758 32.95
Q 759.8 33.55 761.05 34.95 762.25 36.3 763 38.65 763.65 41 763.65 44.7
L 763.45 50.1 741.5 50.1 742.4 43.35 Z"/>
</g>
</defs>

<g transform="matrix( 1, 0, 0, 1, 0,0) ">
<use xlink:href="#Layer0_0_FILL"/>
</g>
</svg>
