<?xml version="1.0" encoding="UTF-8" standalone="no"?>
<!DOCTYPE svg PUBLIC "-//W3C//DTD SVG 1.1//EN" "http://www.w3.org/Graphics/SVG/1.1/DTD/svg11.dtd">
<svg width="100%" height="100%" viewBox="0 0 1339 187" version="1.1" xmlns="http://www.w3.org/2000/svg" xmlns:xlink="http://www.w3.org/1999/xlink" xml:space="preserve" style="fill-rule:evenodd;clip-rule:evenodd;stroke-linejoin:round;stroke-miterlimit:1.41421;">
    <g transform="matrix(1,0,0,1,-297.095,-100.829)">
        <g transform="matrix(8.33333,0,0,8.33333,0,0)">
            <path d="M35.651,25.116L35.895,25.116C35.997,25.47 36.131,25.826 36.292,26.186C36.454,26.548 36.67,26.877 36.943,27.181C37.215,27.481 37.55,27.726 37.947,27.92C38.345,28.109 38.821,28.207 39.381,28.207C39.853,28.207 40.27,28.062 40.639,27.776C41.006,27.488 41.19,27.021 41.19,26.375C41.19,25.814 41.047,25.424 40.759,25.193C40.472,24.967 40.139,24.785 39.755,24.655L38.035,24.056C37.815,23.984 37.576,23.892 37.318,23.781C37.061,23.672 36.822,23.516 36.602,23.318C36.38,23.121 36.2,22.867 36.059,22.559C35.92,22.25 35.85,21.852 35.85,21.367C35.85,20.955 35.931,20.572 36.093,20.22C36.256,19.867 36.476,19.555 36.756,19.293C37.035,19.025 37.369,18.82 37.759,18.676C38.148,18.528 38.571,18.453 39.027,18.453C39.351,18.453 39.611,18.478 39.813,18.53C40.009,18.584 40.182,18.635 40.329,18.686C40.477,18.735 40.609,18.789 40.727,18.842C40.844,18.891 40.983,18.919 41.146,18.919C41.308,18.919 41.425,18.857 41.498,18.74L41.741,18.74L41.741,21.256L41.498,21.256C41.395,20.933 41.28,20.619 41.146,20.318C41.015,20.017 40.855,19.748 40.671,19.513C40.487,19.278 40.261,19.094 39.987,18.962C39.716,18.83 39.396,18.763 39.027,18.763C38.321,18.763 37.775,18.922 37.383,19.237C36.995,19.554 36.8,19.976 36.8,20.506C36.8,20.976 36.965,21.336 37.296,21.576C37.627,21.818 38.116,22.043 38.763,22.25L40.374,22.779C41.064,23.014 41.632,23.339 42.072,23.749C42.515,24.162 42.735,24.704 42.735,25.383C42.735,25.779 42.658,26.17 42.502,26.55C42.348,26.934 42.122,27.269 41.818,27.556C41.517,27.842 41.15,28.075 40.716,28.25C40.282,28.426 39.785,28.513 39.227,28.513C38.902,28.513 38.606,28.48 38.332,28.417C38.061,28.348 37.811,28.28 37.582,28.207C37.356,28.133 37.144,28.062 36.954,27.998C36.764,27.929 36.587,27.895 36.424,27.895C36.262,27.895 36.145,27.929 36.072,27.998C35.997,28.062 35.939,28.133 35.895,28.207L35.651,28.207L35.651,25.116Z" style="fill:white;fill-rule:nonzero;"/>
        </g>
        <g transform="matrix(8.33333,0,0,8.33333,0,0)">
            <path d="M44.919,18.74L46.617,18.74L46.617,15.896C46.735,15.939 46.846,15.977 46.951,16.006C47.051,16.035 47.228,16.051 47.478,16.051C47.698,16.051 47.888,16.024 48.053,15.97C48.213,15.922 48.369,15.834 48.514,15.719L48.514,18.74L51.648,18.74L51.648,19.049L48.514,19.049L48.514,26.263C48.514,26.676 48.555,27.013 48.636,27.269C48.717,27.526 48.824,27.724 48.957,27.863C49.089,28.005 49.232,28.096 49.388,28.138C49.542,28.183 49.693,28.207 49.839,28.207C50.353,28.207 50.768,28.017 51.086,27.643C51.402,27.269 51.603,26.836 51.693,26.353L52.003,26.463C51.956,26.654 51.892,26.868 51.804,27.103C51.714,27.34 51.578,27.562 51.394,27.776C51.21,27.988 50.971,28.167 50.678,28.303C50.383,28.447 50.016,28.513 49.574,28.513C48.472,28.513 47.703,28.302 47.269,27.877C46.835,27.447 46.617,26.846 46.617,26.066L46.617,19.049L44.919,19.049L44.919,18.74Z" style="fill:white;fill-rule:nonzero;"/>
        </g>
        <g transform="matrix(8.33333,0,0,8.33333,0,0)">
            <path d="M59.304,22.801L59.262,22.801C59.229,22.99 58.988,23.184 58.531,23.373L56.877,24.037C56.406,24.228 56.046,24.494 55.797,24.841C55.547,25.188 55.421,25.619 55.421,26.131C55.421,26.354 55.444,26.58 55.487,26.817C55.532,27.055 55.611,27.262 55.73,27.446C55.848,27.631 56.012,27.779 56.226,27.896C56.44,28.016 56.715,28.075 57.055,28.075C57.54,28.075 57.933,27.971 58.234,27.766C58.535,27.559 58.764,27.302 58.918,26.992C59.074,26.685 59.174,26.35 59.227,25.989C59.279,25.629 59.304,25.303 59.304,25.008L59.304,22.801ZM63.167,27.964C62.974,28.11 62.746,28.24 62.481,28.349C62.216,28.46 61.891,28.514 61.511,28.514C60.804,28.514 60.293,28.365 59.977,28.063C59.661,27.762 59.445,27.34 59.325,26.793L59.283,26.793C59.223,26.926 59.142,27.093 59.039,27.289C58.937,27.488 58.779,27.68 58.565,27.863C58.351,28.047 58.067,28.203 57.715,28.327C57.363,28.453 56.914,28.514 56.369,28.514C55.752,28.514 55.26,28.447 54.891,28.304C54.523,28.167 54.237,27.994 54.032,27.789C53.825,27.58 53.688,27.349 53.624,27.093C53.558,26.834 53.524,26.595 53.524,26.375C53.524,25.86 53.626,25.447 53.831,25.141C54.038,24.83 54.307,24.582 54.639,24.401C54.97,24.215 55.337,24.066 55.741,23.95C56.145,23.83 56.553,23.707 56.967,23.572C57.45,23.412 57.851,23.271 58.168,23.154C58.484,23.035 58.732,22.893 58.907,22.724C59.084,22.555 59.204,22.342 59.27,22.083C59.336,21.826 59.37,21.477 59.37,21.036C59.37,20.684 59.349,20.365 59.304,20.086C59.262,19.808 59.181,19.569 59.061,19.37C58.943,19.172 58.774,19.02 58.555,18.919C58.332,18.815 58.039,18.764 57.672,18.764C57.185,18.764 56.786,18.849 56.47,19.018C56.153,19.186 55.995,19.462 55.995,19.842C55.995,20.094 56.016,20.342 56.061,20.581C56.104,20.824 56.128,21.006 56.128,21.124C56.128,21.331 56.053,21.504 55.908,21.641C55.758,21.784 55.547,21.853 55.267,21.853C54.782,21.853 54.481,21.763 54.361,21.588C54.243,21.41 54.186,21.184 54.186,20.903C54.186,20.579 54.259,20.272 54.406,19.977C54.553,19.682 54.769,19.422 55.057,19.193C55.344,18.967 55.704,18.785 56.139,18.653C56.572,18.52 57.068,18.453 57.627,18.453C58.305,18.453 58.87,18.539 59.325,18.707C59.783,18.879 60.15,19.106 60.43,19.391C60.708,19.678 60.907,20.002 61.026,20.363C61.143,20.725 61.201,21.103 61.201,21.5L61.201,26.992C61.201,27.422 61.267,27.708 61.4,27.854C61.533,28 61.723,28.075 61.973,28.075C62.135,28.075 62.306,28.045 62.481,27.984C62.658,27.928 62.827,27.84 62.989,27.721L63.167,27.964Z" style="fill:white;fill-rule:nonzero;"/>
        </g>
        <g transform="matrix(8.33333,0,0,8.33333,0,0)">
            <path d="M64.332,18.74L66.03,18.74L66.03,15.896C66.15,15.939 66.26,15.977 66.364,16.006C66.465,16.035 66.643,16.051 66.893,16.051C67.111,16.051 67.304,16.024 67.467,15.97C67.626,15.922 67.783,15.834 67.931,15.719L67.931,18.74L71.062,18.74L71.062,19.049L67.931,19.049L67.931,26.263C67.931,26.676 67.971,27.013 68.05,27.269C68.131,27.526 68.238,27.724 68.373,27.863C68.503,28.005 68.646,28.096 68.801,28.138C68.956,28.183 69.108,28.207 69.253,28.207C69.768,28.207 70.185,28.017 70.5,27.643C70.816,27.269 71.018,26.836 71.107,26.353L71.417,26.463C71.372,26.654 71.306,26.868 71.218,27.103C71.131,27.34 70.994,27.562 70.81,27.776C70.625,27.988 70.385,28.167 70.092,28.303C69.798,28.447 69.429,28.513 68.988,28.513C67.885,28.513 67.117,28.302 66.682,27.877C66.25,27.447 66.03,26.846 66.03,26.066L66.03,19.049L64.332,19.049L64.332,18.74Z" style="fill:white;fill-rule:nonzero;"/>
        </g>
        <g transform="matrix(8.33333,0,0,8.33333,0,0)">
            <path d="M74.085,13.6C74.085,13.278 74.201,13.002 74.427,12.774C74.655,12.545 74.931,12.432 75.256,12.432C75.578,12.432 75.854,12.545 76.082,12.774C76.311,13.002 76.424,13.278 76.424,13.6C76.424,13.925 76.311,14.199 76.082,14.429C75.854,14.656 75.578,14.769 75.256,14.769C74.931,14.769 74.655,14.656 74.427,14.429C74.201,14.199 74.085,13.925 74.085,13.6M72.652,27.896L74.35,27.896L74.35,19.049L72.652,19.049L72.652,18.741L76.247,18.741L76.247,27.896L77.947,27.896L77.947,28.207L72.652,28.207L72.652,27.896Z" style="fill:white;fill-rule:nonzero;"/>
        </g>
        <g transform="matrix(8.33333,0,0,8.33333,0,0)">
            <path d="M82.491,23.484C82.491,24.529 82.572,25.359 82.735,25.977C82.895,26.594 83.111,27.068 83.375,27.4C83.64,27.731 83.948,27.951 84.301,28.051C84.653,28.156 85.029,28.207 85.426,28.207C85.822,28.207 86.199,28.156 86.552,28.051C86.905,27.951 87.212,27.731 87.477,27.4C87.742,27.068 87.955,26.594 88.118,25.977C88.278,25.359 88.359,24.529 88.359,23.484C88.359,22.601 88.3,21.865 88.184,21.267C88.067,20.671 87.885,20.187 87.644,19.812C87.4,19.433 87.095,19.169 86.729,19.006C86.36,18.843 85.926,18.763 85.426,18.763C84.924,18.763 84.493,18.843 84.123,19.006C83.756,19.169 83.451,19.433 83.209,19.812C82.968,20.187 82.786,20.671 82.668,21.267C82.551,21.865 82.491,22.601 82.491,23.484M80.286,23.484C80.286,22.764 80.442,22.093 80.761,21.476C81.074,20.859 81.481,20.324 81.972,19.876C82.466,19.427 83.016,19.082 83.628,18.83C84.239,18.58 84.837,18.453 85.426,18.453C86.016,18.453 86.614,18.58 87.225,18.83C87.836,19.082 88.387,19.427 88.878,19.876C89.372,20.324 89.776,20.859 90.092,21.476C90.408,22.093 90.566,22.764 90.566,23.484C90.566,24.173 90.419,24.826 90.126,25.437C89.831,26.047 89.445,26.58 88.966,27.037C88.49,27.492 87.941,27.853 87.323,28.12C86.706,28.382 86.072,28.513 85.426,28.513C84.779,28.513 84.147,28.382 83.529,28.12C82.912,27.853 82.363,27.492 81.885,27.037C81.406,26.58 81.019,26.047 80.726,25.437C80.434,24.826 80.286,24.173 80.286,23.484" style="fill:white;fill-rule:nonzero;"/>
        </g>
        <g transform="matrix(8.33333,0,0,8.33333,0,0)">
            <path d="M94.669,27.896L94.669,19.049L93.212,19.049L93.212,18.741L97.316,18.741L97.316,20.947L97.361,20.947C97.418,20.815 97.523,20.614 97.668,20.342C97.816,20.069 98.029,19.799 98.309,19.538C98.589,19.27 98.95,19.04 99.39,18.842C99.833,18.642 100.383,18.543 101.043,18.543C102.016,18.543 102.768,18.821 103.306,19.381C103.842,19.941 104.111,20.704 104.111,21.675L104.111,27.896L105.589,27.896L105.589,28.208L100.052,28.208L100.052,27.896L101.42,27.896L101.42,20.928C101.42,20.308 101.293,19.856 101.043,19.569C100.796,19.283 100.456,19.137 100.031,19.137C99.676,19.137 99.339,19.223 99.014,19.391C98.692,19.563 98.408,19.815 98.166,20.155C97.925,20.493 97.728,20.911 97.581,21.411C97.434,21.913 97.361,22.499 97.361,23.177L97.361,27.896L98.75,27.896L98.75,28.208L93.212,28.208L93.212,27.896L94.669,27.896Z" style="fill:white;fill-rule:nonzero;"/>
        </g>
        <g transform="matrix(8.33333,0,0,8.33333,0,0)">
            <path d="M108.965,13.6C108.965,13.278 109.08,13.002 109.307,12.774C109.535,12.545 109.811,12.432 110.135,12.432C110.458,12.432 110.734,12.545 110.963,12.774C111.189,13.002 111.304,13.278 111.304,13.6C111.304,13.925 111.189,14.199 110.963,14.429C110.734,14.656 110.458,14.769 110.135,14.769C109.811,14.769 109.535,14.656 109.307,14.429C109.08,14.199 108.965,13.925 108.965,13.6M107.531,27.896L109.23,27.896L109.23,19.049L107.531,19.049L107.531,18.741L111.127,18.741L111.127,27.896L112.825,27.896L112.825,28.207L107.531,28.207L107.531,27.896Z" style="fill:white;fill-rule:nonzero;"/>
        </g>
        <g transform="matrix(8.33333,0,0,8.33333,0,0)">
            <path d="M114.725,27.896L116.423,27.896L116.423,19.049L114.725,19.049L114.725,18.741L118.278,18.741L118.278,21.103L118.32,21.103C118.408,20.911 118.536,20.669 118.707,20.373C118.876,20.08 119.106,19.793 119.401,19.514C119.696,19.234 120.063,18.995 120.506,18.797C120.946,18.599 121.482,18.499 122.114,18.499C123.086,18.499 123.877,18.734 124.488,19.206C125.097,19.676 125.402,20.426 125.402,21.456L125.402,27.896L127.101,27.896L127.101,28.208L121.807,28.208L121.807,27.896L123.505,27.896L123.505,20.772C123.505,20.198 123.371,19.727 123.097,19.36C122.826,18.993 122.401,18.809 121.828,18.809C121.358,18.809 120.91,18.911 120.484,19.116C120.057,19.321 119.681,19.61 119.359,19.977C119.034,20.344 118.78,20.778 118.596,21.278C118.412,21.778 118.32,22.323 118.32,22.911L118.32,27.896L120.019,27.896L120.019,28.208L114.725,28.208L114.725,27.896Z" style="fill:white;fill-rule:nonzero;"/>
        </g>
        <g transform="matrix(8.33333,0,0,8.33333,0,0)">
            <path d="M136.147,22.427C136.177,22.22 136.192,22.03 136.192,21.853L136.192,21.301C136.192,20.801 136.143,20.389 136.049,20.067C135.953,19.742 135.82,19.484 135.649,19.293C135.48,19.101 135.275,18.967 135.032,18.885C134.79,18.804 134.528,18.764 134.25,18.764C133.75,18.764 133.338,18.862 133.015,19.061C132.69,19.259 132.434,19.528 132.242,19.867C132.05,20.205 131.907,20.596 131.812,21.036C131.716,21.477 131.654,21.94 131.624,22.427L136.147,22.427ZM131.603,22.735C131.603,22.882 131.599,23.031 131.592,23.188C131.584,23.342 131.58,23.537 131.58,23.771C131.58,24.256 131.609,24.764 131.669,25.294C131.727,25.824 131.857,26.3 132.056,26.73C132.252,27.155 132.547,27.51 132.938,27.789C133.327,28.065 133.844,28.207 134.494,28.207C135.139,28.207 135.673,28.11 136.091,27.92C136.512,27.727 136.843,27.494 137.085,27.225C137.326,26.951 137.508,26.676 137.626,26.397C137.743,26.118 137.831,25.89 137.89,25.715L138.221,25.78C138.176,25.942 138.093,26.172 137.967,26.473C137.843,26.777 137.644,27.078 137.373,27.381C137.1,27.68 136.732,27.944 136.269,28.174C135.805,28.401 135.207,28.514 134.47,28.514C133.735,28.514 133.054,28.396 132.43,28.162C131.804,27.928 131.264,27.59 130.809,27.149C130.352,26.706 129.999,26.178 129.749,25.57C129.499,24.961 129.375,24.28 129.375,23.53C129.375,22.882 129.503,22.252 129.76,21.641C130.018,21.032 130.371,20.492 130.819,20.02C131.268,19.549 131.793,19.172 132.395,18.885C133.001,18.599 133.645,18.453 134.337,18.453C134.75,18.453 135.192,18.529 135.662,18.676C136.132,18.821 136.57,19.061 136.974,19.391C137.379,19.723 137.717,20.16 137.991,20.703C138.262,21.25 138.398,21.925 138.398,22.735L131.603,22.735Z" style="fill:white;fill-rule:nonzero;"/>
        </g>
        <g transform="matrix(8.33333,0,0,8.33333,0,0)">
            <path d="M140.516,18.74L142.214,18.74L142.214,15.896C142.332,15.939 142.443,15.977 142.548,16.006C142.648,16.035 142.825,16.051 143.075,16.051C143.295,16.051 143.485,16.024 143.65,15.97C143.81,15.922 143.966,15.834 144.111,15.719L144.111,18.74L147.245,18.74L147.245,19.049L144.111,19.049L144.111,26.263C144.111,26.676 144.152,27.013 144.233,27.269C144.314,27.526 144.421,27.724 144.554,27.863C144.686,28.005 144.829,28.096 144.985,28.138C145.137,28.183 145.29,28.207 145.436,28.207C145.951,28.207 146.365,28.017 146.683,27.643C146.998,27.269 147.2,26.836 147.29,26.353L147.6,26.463C147.553,26.654 147.487,26.868 147.399,27.103C147.311,27.34 147.175,27.562 146.991,27.776C146.807,27.988 146.568,28.167 146.275,28.303C145.978,28.447 145.613,28.513 145.171,28.513C144.069,28.513 143.3,28.302 142.866,27.877C142.432,27.447 142.214,26.846 142.214,26.066L142.214,19.049L140.516,19.049L140.516,18.74Z" style="fill:white;fill-rule:nonzero;"/>
        </g>
        <g transform="matrix(8.33333,0,0,8.33333,0,0)">
            <path d="M148.105,18.74L153.51,18.74L153.51,19.049L151.656,19.049L154.501,25.977L157.479,19.049L155.65,19.049L155.65,18.74L159.026,18.74L159.026,19.049L157.832,19.049L154.192,27.566C153.914,28.199 153.65,28.834 153.4,29.476C153.15,30.113 152.9,30.758 152.65,31.406C152.442,31.935 152.237,32.396 152.032,32.797C151.824,33.193 151.609,33.518 151.38,33.765C151.151,34.015 150.906,34.202 150.641,34.328C150.376,34.452 150.068,34.515 149.714,34.515C149.287,34.515 148.948,34.447 148.688,34.317C148.432,34.185 148.229,34.031 148.082,33.853C147.934,33.678 147.841,33.492 147.795,33.301C147.751,33.112 147.728,32.95 147.728,32.815C147.728,32.448 147.832,32.175 148.037,31.988C148.242,31.806 148.494,31.715 148.787,31.715C148.889,31.715 149.001,31.726 149.118,31.745C149.235,31.768 149.347,31.809 149.449,31.867C149.551,31.928 149.641,32.01 149.714,32.11C149.789,32.215 149.825,32.339 149.825,32.484C149.825,32.691 149.763,32.886 149.638,33.072C149.511,33.254 149.449,33.457 149.449,33.678C149.449,33.869 149.5,33.992 149.605,34.054C149.707,34.11 149.847,34.142 150.022,34.142C150.258,34.142 150.477,34.086 150.674,33.975C150.872,33.864 151.067,33.685 151.258,33.437C151.448,33.183 151.641,32.855 151.833,32.455C152.023,32.049 152.237,31.553 152.472,30.963L153.444,28.494L149.626,19.049L148.105,19.049L148.105,18.74Z" style="fill:white;fill-rule:nonzero;"/>
        </g>
        <g transform="matrix(8.33333,0,0,8.33333,0,0)">
            <path d="M160.173,27.896L161.871,27.896L161.871,19.049L160.173,19.049L160.173,18.741L161.871,18.741L161.871,17.574C161.871,17.057 161.897,16.613 161.948,16.237C162,15.863 162.07,15.532 162.157,15.246C162.247,14.959 162.35,14.709 162.467,14.494C162.585,14.28 162.717,14.085 162.865,13.909C163.245,13.423 163.726,13.002 164.298,12.641C164.873,12.28 165.484,12.1 166.129,12.1C166.614,12.1 167.03,12.171 167.377,12.31C167.72,12.449 168.005,12.624 168.225,12.829C168.447,13.034 168.609,13.258 168.712,13.5C168.814,13.744 168.865,13.961 168.865,14.152C168.865,14.432 168.784,14.688 168.622,14.924C168.46,15.16 168.188,15.278 167.806,15.278C167.616,15.278 167.4,15.233 167.156,15.145C166.913,15.057 166.791,14.866 166.791,14.571C166.791,14.321 166.862,14.098 167.001,13.899C167.141,13.701 167.21,13.477 167.21,13.227C167.21,12.902 167.08,12.684 166.815,12.575C166.55,12.466 166.277,12.409 165.996,12.409C165.394,12.409 164.873,12.673 164.43,13.204C163.99,13.733 163.768,14.557 163.768,15.672L163.768,18.741L166.505,18.741L166.505,19.049L163.768,19.049L163.768,27.896L165.777,27.896L165.777,28.208L160.173,28.208L160.173,27.896Z" style="fill:white;fill-rule:nonzero;"/>
        </g>
        <g transform="matrix(8.33333,0,0,8.33333,0,0)">
            <path d="M169.902,13.6C169.902,13.278 170.015,13.002 170.244,12.774C170.472,12.545 170.748,12.432 171.072,12.432C171.395,12.432 171.671,12.545 171.899,12.774C172.126,13.002 172.241,13.278 172.241,13.6C172.241,13.925 172.126,14.199 171.899,14.429C171.671,14.656 171.395,14.769 171.072,14.769C170.748,14.769 170.472,14.656 170.244,14.429C170.015,14.199 169.902,13.925 169.902,13.6M168.466,27.896L170.167,27.896L170.167,19.049L168.466,19.049L168.466,18.741L172.064,18.741L172.064,27.896L173.762,27.896L173.762,28.207L168.466,28.207L168.466,27.896Z" style="fill:white;fill-rule:nonzero;"/>
        </g>
        <g transform="matrix(8.33333,0,0,8.33333,0,0)">
            <path d="M174.713,18.74L180.051,18.74L180.051,19.049L178.242,19.049L181.088,25.977L184.044,19.049L182.234,19.049L182.234,18.74L185.589,18.74L185.589,19.049L184.397,19.049L180.227,28.935L176.213,19.049L174.713,19.049L174.713,18.74Z" style="fill:white;fill-rule:nonzero;"/>
        </g>
        <g transform="matrix(8.33333,0,0,8.33333,0,0)">
            <path d="M193.995,22.427C194.025,22.22 194.04,22.03 194.04,21.853L194.04,21.301C194.04,20.801 193.991,20.389 193.896,20.067C193.801,19.742 193.668,19.484 193.497,19.293C193.328,19.101 193.123,18.967 192.88,18.885C192.639,18.804 192.375,18.764 192.098,18.764C191.596,18.764 191.186,18.862 190.863,19.061C190.539,19.259 190.28,19.528 190.09,19.867C189.897,20.205 189.754,20.596 189.661,21.036C189.564,21.477 189.502,21.94 189.473,22.427L193.995,22.427ZM189.451,22.735C189.451,22.882 189.447,23.031 189.438,23.188C189.432,23.342 189.428,23.537 189.428,23.771C189.428,24.256 189.457,24.764 189.517,25.294C189.575,25.824 189.703,26.3 189.904,26.73C190.1,27.155 190.395,27.51 190.786,27.789C191.175,28.065 191.692,28.207 192.341,28.207C192.987,28.207 193.52,28.11 193.939,27.92C194.36,27.727 194.691,27.494 194.932,27.225C195.174,26.951 195.356,26.676 195.473,26.397C195.591,26.118 195.678,25.89 195.738,25.715L196.069,25.78C196.024,25.942 195.941,26.172 195.815,26.473C195.691,26.777 195.493,27.078 195.221,27.381C194.948,27.68 194.58,27.944 194.117,28.174C193.653,28.401 193.055,28.514 192.318,28.514C191.583,28.514 190.902,28.396 190.278,28.162C189.652,27.928 189.111,27.59 188.656,27.149C188.199,26.706 187.847,26.178 187.597,25.57C187.347,24.961 187.223,24.28 187.223,23.53C187.223,22.882 187.351,22.252 187.607,21.641C187.866,21.032 188.219,20.492 188.667,20.02C189.116,19.549 189.641,19.172 190.244,18.885C190.848,18.599 191.494,18.453 192.185,18.453C192.598,18.453 193.04,18.529 193.51,18.676C193.98,18.821 194.418,19.061 194.822,19.391C195.227,19.723 195.565,20.16 195.838,20.703C196.11,21.25 196.246,21.925 196.246,22.735L189.451,22.735Z" style="fill:white;fill-rule:nonzero;"/>
        </g>
    </g>
</svg>
